<?xml version="1.0" encoding="UTF-8"?> <svg xmlns="http://www.w3.org/2000/svg" width="384" height="132" viewBox="0 0 384 132" fill="none"> <path d="M151.6 66.1998L113.8 131.6H71.9L80.3 117.1H105.4L134.8 66.1998L105.5 15.2998H63.5L92.9 66.1998L55.1 131.6H38.3L0.5 66.1998L29.9 15.2998L38.3 29.7998L17.3 66.1998L46.7 117.1L76.1 66.1998L38.3 0.799805H113.9L151.6 66.1998Z" fill="#267ED0"></path> <path d="M204.1 19.9C204.1 15 200 11.9 194.5 11.9H179.8V27.9H194.6C200.1 27.9 204.1 24.8 204.1 19.9ZM166.1 59.2999V0.699951H196.4C210.6 0.699951 218.2 9.39993 218.2 19.7999C218.2 30.0999 210.4 38.9999 196.4 38.9999H179.8V59.2999H166.1Z" fill="#ED7838"></path> <path d="M249.8 13.2999L240.2 38.2999H259.4L249.8 13.2999ZM266.7 58.9999L263 49.1999H236.6L232.7 58.9999H217.7L241.6 0.899902H258L281.7 58.9999H266.7Z" fill="#ED7838"></path> <path d="M303.6 58.9998V35.5998L280.7 0.799805H295.1L310 24.4998L324.6 0.799805H339L316.3 35.5998V58.9998H303.6Z" fill="#ED7838"></path> <path d="M202.3 114.3C202.3 110.6 199.6 107.5 194.7 107.5H178.6V121H194.7C199.5 121 202.3 118.4 202.3 114.3ZM201.1 90.4998C201.1 86.7998 198.4 84.1998 194.2 84.1998H178.5V96.8998H194.2C198.5 96.6998 201.1 94.0998 201.1 90.4998ZM166.1 131.7V73.2998H197C208.1 73.2998 213.9 80.3998 213.9 88.1998C213.9 95.5998 209.3 100.4 203.8 101.6C210.1 102.6 215.1 108.5 215.1 116C215.1 124.8 209.2 131.8 198 131.8L166.1 131.7Z" fill="#267ED0"></path> <path d="M324.2 131.7L309.8 110.4L295.3 131.7H280.8L301.7 101.8L282.1 73.3999H296.7L309.8 93.2999L322.8 73.3999H337.6L318 101.7L338.9 131.7H324.2Z" fill="#267ED0"></path> <path d="M251.8 73.3999C234.8 72.2999 220.6 85.7999 220.6 102.6C220.6 118.7 233.7 131.8 249.8 131.8C266.5 131.8 280 117.7 279 100.8C278.1 86.1999 266.3 74.3999 251.8 73.3999ZM252 120.9C240.9 122.2 231.4 113.5 231.4 102.6C231.4 92.3999 239.7 84.0999 249.8 84.0999C260.7 84.0999 269.4 93.4999 268.2 104.6C267.3 113.1 260.4 120 252 120.9Z" fill="#267ED0"></path> <path d="M358.2 129C358.2 127.4 357 126.4 355.5 126.4C353.9 126.4 352.8 127.4 352.8 128.9C352.8 130.4 353.9 131.5 355.5 131.5C357 131.5 358.2 130.5 358.2 129ZM374.4 121.8V118.1H361.9C361.2 118.1 360.7 118 360.1 117.8C358.2 117.2 356.4 115.5 356.4 113.1C356.4 110.2 358.8 108.8 362.1 108.8H374.5V105.1H361.8C361.1 105.1 360.4 105 359.9 104.8C358.1 104.1 356.5 102.5 356.5 100.3C356.5 97.3 358.9 95.8 362.9 95.8H374.6V92.1H362.4C355.2 92.1 353.5 96.1 353.5 98.9C353.5 100.9 354 102.2 355 103.4C355.7 104.3 356.5 105.1 357.7 105.7V105.8C355.3 106.7 353.5 108.8 353.5 111.7C353.5 115.1 355.3 117 357.3 118.2V118.3L354 118.4V121.7C355.7 121.6 357.4 121.6 359.6 121.6H374.4V121.8ZM353.2 77.4C353.2 83.1 357.2 87.7 364.2 87.7C370.7 87.7 374.8 83.4 374.8 77.8C374.8 72.8 371.5 67.5 363.8 67.5C357.5 67.5 353.2 71.4 353.2 77.4ZM356 77.5C356 73 360.5 71.3 363.9 71.3C368.6 71.3 372 74 372 77.6C372 81.3 368.6 83.9 364.1 83.9C360.1 83.9 356 81.9 356 77.5ZM374.4 62.7V59H361.9C361.2 59 360.7 58.9 360.1 58.7C358 58 356.3 56.1 356.3 53.6C356.3 50.1 359.1 48.8 362.4 48.8H374.3V45.1H362C354.9 45.1 353.2 49.6 353.2 52.4C353.2 55.8 355.1 58.2 357.1 59.2V59.3L353.7 59.5V62.8C355.4 62.7 357.1 62.7 359.3 62.7H374.4V62.7ZM364.7 22.4C364.3 22.3 363.7 22.3 362.9 22.3C359.1 22.3 353.2 24.1 353.2 30.9C353.2 36.9 358.1 40.6 364.3 40.6C370.5 40.6 374.7 36.8 374.7 30.4C374.7 27.1 374 24.8 373.5 23.5L370.8 24.2C371.4 25.6 371.9 27.2 371.9 29.9C371.9 33.6 369.8 36.9 364.7 37V22.4V22.4ZM362 36.9C359.4 36.6 355.9 34.9 355.9 31.1C355.9 26.9 359.6 25.8 362 25.9V36.9ZM353.7 20.4L372.7 12.8C373.1 12.7 373.4 12.6 373.7 12.6C373.9 12.6 374.2 12.7 374.6 12.9C376.5 13.8 378 15 378.8 16C379.8 17.1 380.3 18.3 380.6 19.3L383.7 18.3C383.6 17.3 382.9 15.5 381.3 13.7C379.1 11.1 375.4 9.29998 368.3 6.59998L353.6 1V5L365.8 9.09998C367.3 9.59998 368.9 10.1 370.1 10.4V10.5C368.9 10.9 367.2 11.4 365.9 11.8L353.7 16.3V20.4Z" fill="#ED7838"></path> </svg> 