<svg xmlns="http://www.w3.org/2000/svg" width="256" height="256"><path fill-opacity=".016" d="M0 128.004v128.004l128.25-.254 128.25-.254.254-127.75L257.008 0H0v128.004m.485.496c0 70.4.119 99.053.265 63.672.146-35.38.146-92.98 0-128C.604 29.153.485 58.1.485 128.5" fill="#fff" fill-rule="evenodd"/><path fill-opacity=".255" d="M32.723 33.75c-.218.413-.349 6.15-.293 12.75l.103 12H38.5l.286-9.75.286-9.75H58v-6H45.559c-6.843 0-12.619.337-12.836.75M196 35.97V39h18.928l.286 9.75.286 9.75h6v-25l-12.75-.28-12.75-.28v3.03M48 80.458v26.458l-7.564.292-7.564.292-.031 16.5-.032 16.5 7.581.292 7.581.292.264 30.208.265 30.208h7l.265-30.25.264-30.25h6.942l.264 30.25.265 30.25 7.488.299c4.119.164 8.506.043 9.75-.269l2.262-.568V141h6v59.962l2.498.627c5.619 1.41 5.502 2.059 5.502-30.558V141h6v30.031c0 32.617-.117 31.968 5.502 30.558l2.498-.627V141h5.971l.264 30.25.265 30.25 7.488.299c4.119.164 8.506.043 9.75-.269l2.262-.568V141h6v29.933c0 29.054.059 29.951 2 30.567 1.1.349 2.9.349 4 0 1.941-.616 2-1.513 2-30.567V141h6V202.121l3.75-.311 3.75-.31.265-30.25.264-30.25h4.942l.264 30.25.265 30.25 3.75.31 3.75.311V141h6.971l.264 30.25.265 30.25 7.488.299c4.119.164 8.506.043 9.75-.269l2.262-.568v-59.881l8.25-.291 8.25-.29v-33l-8.25-.29-8.25-.291V54h-20v53h-7V53.879l-3.75.311-3.75.31-.267 26.25-.266 26.25h-4.934l-.266-26.25-.267-26.25-3.75-.31-3.75-.311V107h-6V54h-8v53h-6V54h-20v53h-6V54h-8v53h-6V53.879l-3.75.311-3.75.31-.267 26.25-.266 26.25H83V54H63v53h-7V54h-8v26.458m38 44.209c0 3.666.229 6.437.509 6.157.832-.832 1.057-12.825.241-12.825-.412.001-.75 3.001-.75 6.668M89.455 122c0 2.2.347 4 .772 4 .425 0 .773-1.8.773-4s-.348-4-.773-4c-.425 0-.772 1.8-.772 4M94 124.5c0 3.575.338 6.5.75 6.5s.75-2.925.75-6.5-.338-6.5-.75-6.5-.75 2.925-.75 6.5m3.41 0c-.032 3.575.313 6.5.766 6.5s.824-2.925.824-6.5-.345-6.5-.766-6.5c-.421 0-.792 2.925-.824 6.5m4.59-4.155c0 1.29.9 3.16 2 4.155 1.1.995 2 2.64 2 3.655 0 2.316-.897 2.349-2.608.095-1.227-1.616-1.331-1.572-1.36.566-.027 1.943.411 2.266 2.718 2 3.476-.4 4.154-3.688 1.294-6.276-1.124-1.018-2.044-2.905-2.044-4.195 0-1.29-.45-2.345-1-2.345s-1 1.055-1 2.345m4-.904c0 .857.45 1.559 1 1.559s1-.423 1-.941-.45-1.219-1-1.559c-.55-.34-1 .084-1 .941m10 .904c0 1.29.9 3.16 2 4.155 2.053 1.858 2.748 5.5 1.05 5.5-.523 0-1.409-.787-1.97-1.75-.904-1.552-1.023-1.488-1.05.566-.025 1.942.414 2.266 2.711 2 3.716-.428 4.019-3.124.782-6.971-1.446-1.719-2.395-3.737-2.108-4.485.287-.748.086-1.36-.446-1.36-.533 0-.969 1.055-.969 2.345m4-.845c0 .825.45 1.5 1 1.5s1-.675 1-1.5-.45-1.5-1-1.5-1 .675-1 1.5m4 4.441c0 3.268.45 6.219 1 6.559.582.36 1-.637 1-2.382 0-1.65.45-3.278 1-3.618.582-.36 1 .637 1 2.382 0 1.65.45 3.278 1 3.618.628.388 1-1.823 1-5.941 0-3.706-.435-6.559-1-6.559-.55 0-1 1.125-1 2.5s-.45 2.5-1 2.5-1-1.125-1-2.5-.45-2.5-1-2.5c-.554 0-1 2.647-1 5.941m9 .559c0 6.267.09 6.5 2.5 6.5 2.439 0 2.495-.165 2.307-6.75l-.192-6.75-.357 6.317c-.246 4.346-.731 6.192-1.556 5.917-.791-.264-1.106-2.333-.924-6.067.166-3.392-.136-5.667-.751-5.667-.597 0-1.027 2.717-1.027 6.5m8-.559c0 3.268.45 6.219 1 6.559.562.348 1-.451 1-1.824 0-1.602.689-2.623 2-2.966 1.532-.4 2-1.364 2-4.116 0-1.977-.45-3.594-1-3.594s-1 1.575-1 3.5-.499 3.5-1.109 3.5c-.679 0-.951-1.358-.701-3.5.282-2.414.005-3.5-.891-3.5-.92 0-1.299 1.735-1.299 5.941m13 .618c0 4.118.372 6.329 1 5.941.55-.34 1.037-1.604 1.081-2.809.073-1.961.212-1.896 1.324.616 1.145 2.588 1.236 2.299 1.168-3.683-.063-5.645-.231-6.207-1.288-4.308l-1.214 2.184-.036-2.25c-.019-1.237-.485-2.25-1.035-2.25-.565 0-1 2.853-1 6.559m9.695-3.309a215.656 215.656 0 01-1.256 6.5c-.413 1.948-.291 3.25.304 3.25.547 0 1.269-1.687 1.605-3.75.337-2.062.899-4.987 1.249-6.5.363-1.571.213-2.75-.35-2.75-.542 0-1.24 1.463-1.552 3.25M32.773 208.196c-.262 6.767-.292 12.642-.066 13.054.226.412 6.009.75 12.852.75H58v-6H39.072l-.286-9.75c-.284-9.696-.301-9.752-2.911-10.054l-2.625-.305-.477 12.305m182.94-11.575c-.392.392-.713 4.912-.713 10.046V216h-19v6.06l12.75-.28 12.75-.28v-25l-2.537-.296c-1.396-.163-2.859.025-3.25.417" fill="#fff" fill-rule="evenodd"/><path fill-opacity=".412" d="M33 46v12h2.5c2.491 0 2.5-.036 2.5-9.464v-9.464l9.75-.286c9.249-.271 9.766-.402 10.07-2.536.316-2.231.213-2.25-12.25-2.25H33v12m164-9.44v2.56l9.25-.205 9.25-.205.286 9.645c.282 9.506.322 9.645 2.75 9.645H221V34h-24v2.56M49.667 54.667c-.367.366-.667 12.291-.667 26.5 0 19.908-.287 25.873-1.25 26.006-.687.095-4.175.207-7.75.25l-6.5.077-.275 16.207-.274 16.208 7.774.292 7.775.293.265 30.25.264 30.25h5.942l.264-30.25.265-30.25h8l.265 30.25.264 30.25H82v-61h8v61h5.971l.264-30.25.265-30.25h7l.2 30 .201 30 3.049.313 3.05.314v-61.248l3.75.311 3.75.31.265 30.25.264 30.25h17.942l.264-30.25.265-30.25 3.75-.31 3.75-.311V201h5.971l.264-30.25.265-30.25h7l.265 30.25.264 30.25H164v-61h7v61h5.971l.264-30.25.265-30.25h8l.265 30.25.264 30.25H204v-61h17.05l-.275-16.25-.275-16.25-8-.025-8-.026-.5-26.474-.5-26.475-8.75-.289-8.75-.289v26.422c0 25.12-.094 26.447-1.9 26.92-1.046.273-3.071.273-4.5 0l-2.6-.497V55h-6v25.893c0 27.415.008 27.371-4.642 26.689-1.748-.256-1.874-1.815-2.125-26.427L163.967 55H158v25.893c0 27.894.095 27.421-5.297 26.391l-2.67-.511-.267-26.136L149.5 54.5h-5l-.267 25.952c-.188 18.248-.61 26.163-1.42 26.663-.633.392-2.313.589-3.732.438l-2.581-.275-.266-26.678-.267-26.677-8.733.288-8.734.289-.5 26.45-.5 26.449-3.5.051-3.5.05L110 81l-.5-26.5-2.75-.316-2.75-.317v52.9l-2.687.513C95.896 108.316 96 108.844 96 80.327v-26.46l-2.75.317-2.75.316L90 81l-.5 26.5h-7L82 81l-.5-26.5-8.75-.289-8.75-.289v26.432c0 28.49.222 27.39-5.5 27.23l-3-.084-.266-26.75L54.967 54H52.65c-1.274 0-2.617.3-2.983.667m36.046 62.954c-.392.392-.713 3.562-.713 7.046 0 4.963.325 6.333 1.5 6.333.825 0 1.5-.884 1.5-1.965 0-1.08.925-2.46 2.056-3.065 1.61-.862 1.99-1.901 1.75-4.785-.258-3.103-.707-3.732-2.843-3.981-1.396-.163-2.859.025-3.25.417m8 0c-.392.392-.713 3.532-.713 6.978 0 5.437.271 6.352 2.048 6.916 3.652 1.159 5.069-1.208 4.746-7.924-.274-5.686-.463-6.111-2.831-6.387-1.396-.163-2.859.025-3.25.417m8 0c-1.286 1.286-.748 4.064 1.287 6.652 1.1 1.398 1.971 3.371 1.937 4.385-.05 1.436-.277 1.308-1.031-.578-.751-1.878-1.235-2.151-2.164-1.222-1.733 1.733.377 4.642 3.367 4.642 3.295 0 3.916-5.262.94-7.956-1.127-1.02-2.035-2.572-2.019-3.449.026-1.364.179-1.341 1.05.155 1.443 2.478 3.119 2.172 2.74-.5-.222-1.557-1.102-2.341-2.857-2.546-1.396-.163-2.859.025-3.25.417m13.751 1.493c-.445 1.402.038 3.073 1.432 4.96 1.157 1.565 2.104 3.399 2.104 4.077 0 .677-.643.358-1.429-.71-1.367-1.857-1.459-1.862-2.136-.113-.978 2.522 1.724 5.074 4.453 4.207 2.769-.878 2.834-5.571.112-8.035-1.1-.995-1.986-2.528-1.97-3.405.026-1.364.179-1.341 1.05.155 1.47 2.524 2.92 2.151 2.92-.75 0-2.098-.471-2.5-2.933-2.5-2.107 0-3.121.595-3.603 2.114m8.536 5.053c0 5.251.33 6.833 1.427 6.833.784 0 1.632-.787 1.884-1.75.435-1.667.463-1.667.573 0 .064.963.566 1.75 1.116 1.75.569 0 1-2.944 1-6.833v-6.834h-6v6.834m8.713-6.546c-.392.392-.713 3.282-.713 6.423 0 6.303 1.514 8.562 4.996 7.457 1.889-.599 2.063-1.311 1.798-7.332-.278-6.305-.433-6.685-2.831-6.965-1.396-.163-2.859.025-3.25.417M141 124c0 5.556.31 7 1.5 7 .825 0 1.5-.884 1.5-1.965 0-1.08.9-2.446 2-3.035 1.984-1.062 2.591-4.295 1.393-7.418-.36-.938-1.784-1.582-3.5-1.582H141v7m12.667-6.333c-.367.366-.667 3.516-.667 7 0 4.963.325 6.333 1.5 6.333.825 0 1.5-.54 1.5-1.2 0-.933.267-.933 1.2 0 2.048 2.048 2.3 1.414 2.3-5.8 0-7.214-.252-7.848-2.3-5.8-.933.933-1.2.933-1.2 0 0-1.306-1.27-1.597-2.333-.533m8.333.25c0 .504.441 1.066.98 1.25.598.203.404 2.241-.5 5.242-1.977 6.558-1.963 6.608 1.77 6.475 1.787-.064 2.462-.322 1.499-.573-1.793-.469-1.697-2.446.397-8.126 1.435-3.892 1.025-5.185-1.646-5.185-1.375 0-2.5.412-2.5.917M88.195 121.5c.02 1.65.244 2.204.498 1.231.254-.973.237-2.323-.037-3-.274-.677-.481.119-.461 1.769m8.115 3c.005 3.3.192 4.529.415 2.732.222-1.797.218-4.497-.01-6-.229-1.503-.411-.032-.405 3.268m30.769-3.917c.048 1.165.285 1.402.604.605.289-.722.253-1.585-.079-1.917-.332-.332-.568.258-.525 1.312M135.3 124c0 3.025.187 4.262.416 2.75.229-1.513.229-3.987 0-5.5s-.416-.275-.416 2.75m8.895-2.5c.02 1.65.244 2.204.498 1.231.254-.973.237-2.323-.037-3-.274-.677-.481.119-.461 1.769M110 125c0 .55.675 1 1.5 1s1.5-.45 1.5-1-.675-1-1.5-1-1.5.45-1.5 1m39 5c0 .55.702 1 1.559 1s1.281-.45.941-1c-.34-.55-1.041-1-1.559-1s-.941.45-.941 1M33 209v12h12.544c11.392 0 12.517-.161 12.25-1.75-.249-1.481-1.756-1.827-9.794-2.25l-9.5-.5-.286-9.75c-.283-9.618-.32-9.75-2.75-9.75H33v12m182.786-2.25l-.286 9.75-9.25.288c-8.427.261-9.25.462-9.25 2.25 0 1.84.743 1.962 12 1.962h12v-24h-2.464c-2.43 0-2.467.132-2.75 9.75" fill="#fff" fill-rule="evenodd"/><path fill-opacity=".254" d="M39.522 113.811c-.287.287-.522 4.947-.522 10.356V134h176.07l-.285-10.25-.285-10.25-87.228-.106c-47.975-.058-87.462.13-87.75.417m46.198 2.802c-.396.396-.72 4.02-.72 8.054 0 5.852.303 7.333 1.5 7.333.887 0 1.503-.92 1.508-2.25.005-1.418.93-2.678 2.503-3.407 2.298-1.066 2.462-.98 2.086 1.094-.598 3.3.741 4.766 4.012 4.393 2.859-.326 2.894-.41 3.184-7.55.289-7.107.251-7.231-2.405-7.898-1.954-.49-3.043-.207-3.943 1.024-.683.935-1.401 1.259-1.594.721-.457-1.275-5.199-2.446-6.131-1.514m15.947.054c-1.119 1.118-.743 6.857.533 8.133.933.933.919 1.2-.066 1.2-.792 0-1.148 1.031-.95 2.75.278 2.416.741 2.75 3.816 2.75 3.075 0 3.538-.334 3.816-2.75.249-2.16.839-2.75 2.75-2.75 1.339 0 2.434-.464 2.434-1.031 0-.568-1.573-.926-3.496-.796-1.923.129-4.038-.307-4.7-.969-.939-.939-.719-1.204.996-1.204 2.447 0 3.025-2.775 1-4.8-1.294-1.294-5.047-1.62-6.133-.533m14.583-.005c-1.595.644-1.631 6.557-.05 8.138.933.933.919 1.2-.066 1.2-.792 0-1.148 1.031-.95 2.75.252 2.198.897 2.816 3.207 3.08 4.794.547 6.27-4.205 2.42-7.791-1.777-1.656-1.882-2.039-.559-2.039 2.306 0 3.022-1.62 1.759-3.979-1.039-1.941-3.109-2.429-5.761-1.359m7.506 3.21c-.238 1.995-.222 5.54.035 7.878.45 4.078.607 4.25 3.881 4.25h3.412l-.292-7.722-.292-7.723-3.155-.155c-2.916-.145-3.187.118-3.589 3.472m9.445-3.017c-.913.579-1.211 2.882-1 7.735l.299 6.91 3.25.313c2.579.249 3.256-.061 3.28-1.5.029-1.71.089-1.713 1.05-.063 1.497 2.571 3.92 2.179 3.92-.633 0-1.543.706-2.568 2-2.907 2.902-.759 2.873-8.172-.038-9.73-2.585-1.384-5.943-.36-6.025 1.837-.046 1.209-.318 1.049-.968-.567-.919-2.286-3.413-2.889-5.768-1.395m20.292-.015c-.271.271-.493 3.713-.493 7.649v7.156l6.936.186c6.928.186 9.569-.889 6.458-2.63-1.526-.854-1.52-1.305.081-6.126.951-2.863 1.42-5.513 1.044-5.89-.785-.784-13.279-1.092-14.026-.345m6.169 4.102c-.308 1.537-.213 4.088.209 5.67.75 2.802.799 2.757 1.949-1.812 1.455-5.78 1.466-5.476-.21-6.119-.92-.353-1.578.41-1.948 2.261m-11.412 9.308c.63 1.892 3.75 2.161 3.75.323 0-.927-.855-1.573-2.083-1.573-1.222 0-1.912.517-1.667 1.25" fill="#fff" fill-rule="evenodd"/></svg>